<?xml version="1.0" encoding="iso-8859-1"?>

<!DOCTYPE svg PUBLIC "-//W3C//DTD SVG 1.1//EN" "http://www.w3.org/Graphics/SVG/1.1/DTD/svg11.dtd">
<!-- Uploaded to: SVG Repo, www.svgrepo.com, Generator: SVG Repo Mixer Tools -->
<svg height="800px" width="800px" version="1.1" id="_x36_" xmlns="http://www.w3.org/2000/svg" xmlns:xlink="http://www.w3.org/1999/xlink" 
	 viewBox="0 0 512 512"  xml:space="preserve">
<g>
	<polygon style="fill:#1D2A73;" points="256,-102.133 256,199.992 162.609,182.718 105.747,172.161 105.747,77.391 64.54,56.397 
		47.985,47.94 6.958,27.066 0,23.528 16.135,15.61 	"/>
	<polygon style="fill:#1D2B60;" points="512,23.528 505.222,26.947 406.253,77.391 406.253,172.161 256,199.992 256,-102.133 
		491.966,13.691 	"/>
	<polygon style="fill:#607783;" points="256,-102.133 256,199.992 162.609,182.718 105.747,172.161 105.747,77.391 64.54,56.397 
		47.985,47.94 6.958,27.066 0,23.528 16.135,15.61 	"/>
	<polygon style="fill:#576C78;" points="512,23.528 505.222,26.947 406.253,77.391 406.253,172.161 256,199.992 256,-102.133 
		491.966,13.691 	"/>
	<path style="fill:#ECAE52;" d="M79.809,205.601H30.188v-54.345c0-13.701,11.12-24.821,24.82-24.821
		c13.703,0,24.801,11.12,24.801,24.821V205.601z"/>
	<polygon style="fill:#ECAE52;" points="47.983,45.522 47.983,57.553 47.811,57.553 47.811,141.132 61.996,141.132 61.996,57.553 
		255.523,-29.364 255.523,-47.218 	"/>
	<path style="fill:#ECAE52;" d="M276.201-39.818c0,7.158-9.801,12.968-21.884,12.968c-12.083,0-21.886-5.81-21.886-12.968
		c0-7.157,9.803-12.948,21.886-12.948C266.4-52.766,276.201-46.975,276.201-39.818z"/>
</g>
</svg>